HIERARCHY
ROOT Hips
{
	OFFSET 0.000000 0.000000 0.000000
	CHANNELS 6 Xposition Yposition Zposition Zrotation Yrotation Xrotation 
	JOINT LHipJoint
	{
		OFFSET 0.000000 0.000000 0.000000
		CHANNELS 3 Zrotation Yrotation Xrotation
		JOINT LeftUpLeg
		{
			OFFSET 1.363060 -1.794630 0.839290
			CHANNELS 3 Zrotation Yrotation Xrotation
			JOINT LeftLeg
			{
				OFFSET 2.448110 -6.726130 0.000000
				CHANNELS 3 Zrotation Yrotation Xrotation
				JOINT LeftFoot
				{
					OFFSET 2.562200 -7.039590 0.000000
					CHANNELS 3 Zrotation Yrotation Xrotation
					JOINT LeftToeBase
					{
						OFFSET 0.157640 -0.433110 2.322550
						CHANNELS 3 Zrotation Yrotation Xrotation
						End Site
						{
							OFFSET 0.000000 0.000000 0.000000
						}
					}
				}
			}
		}
	}
	JOINT RHipJoint
	{
		OFFSET 0.000000 0.000000 0.000000
		CHANNELS 3 Zrotation Yrotation Xrotation
		JOINT RightUpLeg
		{
			OFFSET -1.305520 -1.794630 0.839290
			CHANNELS 3 Zrotation Yrotation Xrotation
			JOINT RightLeg
			{
				OFFSET -2.542530 -6.985550 0.000000
				CHANNELS 3 Zrotation Yrotation Xrotation
				JOINT RightFoot
				{
					OFFSET -2.568260 -7.056230 0.000000
					CHANNELS 3 Zrotation Yrotation Xrotation
					JOINT RightToeBase
					{
						OFFSET -0.164730 -0.452590 2.363150
						CHANNELS 3 Zrotation Yrotation Xrotation
						End Site
						{
							OFFSET 0.000000 0.000000 0.000000
						}
					}
				}
			}
		}
	}
	JOINT LowerBack
	{
		OFFSET 0.000000 0.000000 0.000000
		CHANNELS 3 Zrotation Yrotation Xrotation
		JOINT Spine
		{
			OFFSET 0.028270 2.035590 -0.193380
			CHANNELS 3 Zrotation Yrotation Xrotation
			JOINT Spine1
			{
				OFFSET 0.056720 2.048850 -0.042750
				CHANNELS 3 Zrotation Yrotation Xrotation
				JOINT Neck
				{
					OFFSET 0.000000 0.000000 0.000000
					CHANNELS 3 Zrotation Yrotation Xrotation
					JOINT Neck1
					{
						OFFSET -0.054170 1.746240 0.172020
						CHANNELS 3 Zrotation Yrotation Xrotation
						JOINT Head
						{
							OFFSET 0.104070 1.761360 -0.123970
							CHANNELS 3 Zrotation Yrotation Xrotation
							End Site
							{
								OFFSET 0.000000 0.000000 0.000000
							}
						}
					}
				}
				JOINT LeftShoulder
				{
					OFFSET 0.000000 0.000000 0.000000
					CHANNELS 3 Zrotation Yrotation Xrotation
					JOINT LeftArm
					{
						OFFSET 3.362410 1.200890 -0.311210
						CHANNELS 3 Zrotation Yrotation Xrotation
						JOINT LeftForeArm
						{
							OFFSET 4.983000 -0.000000 -0.000000
							CHANNELS 3 Zrotation Yrotation Xrotation
							JOINT LeftHand
							{
								OFFSET 3.483560 -0.000000 -0.000000
								CHANNELS 3 Zrotation Yrotation Xrotation
								JOINT LeftFingerBase
								{
									OFFSET 0.000000 0.000000 0.000000
									CHANNELS 3 Zrotation Yrotation Xrotation
									JOINT LeftHandIndex1
									{
										OFFSET 0.715260 -0.000000 -0.000000
										CHANNELS 3 Zrotation Yrotation Xrotation
										End Site
										{
											OFFSET 0.000000 0.000000 0.000000
										}
									}
								}
								JOINT LThumb
								{
									OFFSET 0.000000 0.000000 0.000000
									CHANNELS 3 Zrotation Yrotation Xrotation
									End Site
									{
										OFFSET 0.000000 0.000000 0.000000
									}
								}
							}
						}
					}
				}
				JOINT RightShoulder
				{
					OFFSET 0.000000 0.000000 0.000000
					CHANNELS 3 Zrotation Yrotation Xrotation
					JOINT RightArm
					{
						OFFSET -3.136600 1.374050 -0.404650
						CHANNELS 3 Zrotation Yrotation Xrotation
						JOINT RightForeArm
						{
							OFFSET -5.241900 -0.000000 -0.000000
							CHANNELS 3 Zrotation Yrotation Xrotation
							JOINT RightHand
							{
								OFFSET -3.444170 -0.000000 -0.000000
								CHANNELS 3 Zrotation Yrotation Xrotation
								JOINT RightFingerBase
								{
									OFFSET 0.000000 0.000000 0.000000
									CHANNELS 3 Zrotation Yrotation Xrotation
									JOINT RightHandIndex1
									{
										OFFSET -0.622530 -0.000000 -0.000000
										CHANNELS 3 Zrotation Yrotation Xrotation
										End Site
										{
											OFFSET 0.000000 0.000000 0.000000
										}
									}
								}
								JOINT RThumb
								{
									OFFSET 0.000000 0.000000 0.000000
									CHANNELS 3 Zrotation Yrotation Xrotation
									End Site
									{
										OFFSET 0.000000 0.000000 0.000000
									}
								}
							}
						}
					}
				}
			}
		}
	}
}
MOTION
Frames: 7
Frame Time: 0.008333
9.802748 17.947640 5.302693 3.502077 9.201639 7.584247 -0.937908 3.863091 4.907242 -15.245091 8.745078 10.101101 -2.928738 0.606237 8.574523 0.832689 0.816066 19.316857 1.081678 -6.609291 -18.563416 -0.524278 0.576724 -3.407161 11.695116 7.451042 -33.298512 0.828519 -11.725615 27.435805 0.159344 -5.552043 13.707760 -0.750437 5.524708 -15.413495 -4.077053 -5.522289 -4.551440 1.561379 -6.943104 -5.338234 6.328181 -4.471195 7.620003 -10.002155 -2.200124 -18.856024 5.008944 -0.646514 10.241063 5.463798 -0.933333 12.038720 -0.411574 -7.843394 -0.337838 -72.746851 -25.564843 46.000917 24.658906 -32.825189 -9.682599 0.688222 1.127483 -9.373776 14.045792 -28.012101 -6.517574 -7.125000 0.000000 0.000000 -10.222646 0.579113 10.285576 0.236604 6.938445 0.361336 77.249292 -17.220001 14.788494 -7.356045 13.914307 -2.085282 3.118188 1.195348 -1.699441 -26.997777 -17.808639 10.442299 7.125000 0.000000 0.000000 -2.031739 -51.131448 0.303094
9.789039 17.950464 5.428261 3.281492 8.946684 7.561208 -1.024062 3.713178 4.856271 -15.047539 9.015470 8.565525 -2.582105 1.788186 11.530382 0.751809 1.287836 19.658648 1.018146 -6.408041 -17.976988 -0.493176 0.602292 -3.374030 12.095529 7.424337 -33.259478 0.746450 -11.863479 27.974140 -0.015642 -4.876442 13.682290 -0.671832 5.238168 -14.589780 -3.842496 -5.410245 -4.612223 1.559329 -6.824360 -5.328586 6.313245 -4.392350 7.683751 -10.128954 -2.224776 -18.958268 5.085250 -0.626568 10.252128 5.577544 -0.930753 12.094607 -0.427882 -7.818276 -0.353634 -73.015721 -25.227724 46.037976 24.567449 -32.792371 -9.642583 0.675649 1.136232 -9.116731 14.258542 -28.183112 -6.674595 -7.125000 0.000000 0.000000 -10.104559 0.358745 10.201027 0.232094 6.963517 0.367022 77.311195 -16.854747 14.098219 -7.245136 13.749098 -2.063753 3.132765 1.175974 -1.260540 -26.982171 -17.931169 10.506084 7.125000 0.000000 0.000000 -2.006401 -51.268442 0.309313
9.775425 17.953360 5.550603 3.140151 8.723756 7.532653 -1.080402 3.561197 4.783030 -14.933925 9.267562 7.156919 -2.211212 2.900595 14.328110 0.640049 1.865831 20.095137 0.880943 -5.979034 -16.725046 -0.467743 0.626874 -3.331200 12.438864 7.288127 -33.205384 0.671576 -11.978794 28.462485 -0.213492 -4.144177 13.732192 -0.616420 5.023580 -13.976067 -3.674631 -5.297275 -4.613202 1.546363 -6.698297 -5.322118 6.256517 -4.308689 7.720860 -10.189943 -2.268287 -19.102574 5.119970 -0.651231 10.276618 5.640073 -0.947755 12.190745 -0.441443 -7.806943 -0.372029 -73.223790 -24.887129 46.197044 24.472026 -32.737906 -9.585538 0.635432 1.152326 -8.847949 14.909746 -28.205258 -7.040224 -7.125000 0.000000 0.000000 -9.705998 0.203975 9.813311 0.220679 6.995837 0.364281 77.427912 -16.498260 13.476985 -7.153204 13.605598 -2.049372 3.158645 1.125694 -0.919406 -27.239826 -17.820208 10.540540 7.125000 0.000000 0.000000 -2.311535 -51.152704 0.350321
9.759522 17.960781 5.668992 3.005360 8.592370 7.503906 -1.105932 3.446373 4.700481 -14.767142 9.633547 5.955589 -1.830106 3.800303 16.650591 0.553756 2.407978 20.853355 0.711686 -5.357421 -14.938974 -0.443072 0.631937 -3.269474 12.801391 7.090019 -33.108127 0.616290 -12.053165 28.831470 -0.365140 -3.534898 13.628975 -0.621537 5.044910 -14.036813 -3.553348 -5.228333 -4.541897 1.543638 -6.631830 -5.333886 6.205058 -4.252844 7.649899 -10.093678 -2.250526 -19.196459 5.069370 -0.647153 10.337738 5.577059 -0.949828 12.298522 -0.427954 -7.816038 -0.400462 -73.482888 -24.395372 46.134813 24.364098 -32.679850 -9.528311 0.626144 1.152115 -8.471151 15.069965 -28.138963 -7.117277 -7.125000 0.000000 0.000000 -9.598638 0.237425 9.696048 0.230981 7.031482 0.351204 77.544982 -16.231250 13.095371 -7.114929 13.515939 -2.039873 3.170156 1.053266 -0.555453 -27.416535 -17.516457 10.421597 7.125000 0.000000 0.000000 -2.544500 -50.786451 0.361279
9.743420 17.969350 5.787013 2.860386 8.480071 7.473027 -1.124193 3.341275 4.616044 -14.579458 10.016514 4.803768 -1.444104 4.653909 18.870889 0.468837 2.957082 21.671161 0.541232 -4.709757 -13.083292 -0.418170 0.631684 -3.202470 13.179805 6.878596 -32.997528 0.566643 -12.116716 29.170245 -0.506868 -2.950494 13.485790 -0.635303 5.099733 -14.193343 -3.429808 -5.170233 -4.458367 1.544812 -6.580926 -5.349968 6.155486 -4.203965 7.552904 -9.963658 -2.215928 -19.269686 5.001947 -0.632825 10.406330 5.488032 -0.946727 12.403848 -0.408458 -7.828786 -0.430742 -73.758600 -23.867287 46.007861 24.244220 -32.613776 -9.467067 0.624846 1.149103 -8.060796 15.111063 -28.071259 -7.128651 -7.125000 0.000000 0.000000 -9.563975 0.295324 9.650177 0.246725 7.067072 0.336750 77.649048 -15.997833 12.822670 -7.098434 13.453784 -2.035865 3.179997 0.989978 -0.240325 -27.567411 -17.257941 10.319455 7.125000 0.000000 0.000000 -2.742917 -50.472964 0.370045
9.730115 17.981856 5.909540 2.573048 8.395561 7.415934 -1.122541 3.272197 4.529441 -14.252935 10.349511 3.793530 -1.020417 5.421000 20.908226 0.342469 3.675694 22.492983 0.429617 -4.179981 -11.587391 -0.388624 0.609921 -3.113018 13.712610 6.643258 -32.819546 0.542367 -12.139299 29.406253 -0.630980 -2.393845 13.195578 -0.617792 5.029973 -13.994119 -3.170809 -5.146266 -4.388455 1.571149 -6.587332 -5.377990 6.117364 -4.178114 7.379336 -9.773808 -2.111962 -19.200790 4.920684 -0.556570 10.483992 5.362917 -0.913344 12.451748 -0.376147 -7.840150 -0.460992 -74.124494 -23.233193 45.581476 24.003755 -32.455749 -9.356035 0.652207 1.148637 -7.479704 14.793694 -28.189596 -6.983540 -7.125000 0.000000 0.000000 -9.767492 0.225452 9.873972 0.280489 7.094317 0.328886 77.589740 -15.978292 13.359613 -7.230622 13.611463 -2.089242 3.202035 1.091964 -0.588068 -27.581768 -18.008783 10.780545 7.125000 0.000000 0.000000 -2.675643 -51.395878 0.420599
9.717726 17.995652 6.032796 2.275917 8.301372 7.361034 -1.116636 3.203796 4.434118 -13.936144 10.649989 2.808943 -0.582638 6.177778 22.923037 0.189627 4.471488 23.232335 0.338451 -3.734418 -10.331073 -0.357973 0.587900 -3.021795 14.254599 6.395634 -32.619266 0.529074 -12.143991 29.595146 -0.762415 -1.822405 12.948296 -0.591962 4.924257 -13.692892 -2.899878 -5.118955 -4.351575 1.600835 -6.588055 -5.398457 6.100340 -4.151527 7.250316 -9.632273 -2.020681 -19.118587 4.855754 -0.482604 10.532493 5.263895 -0.880356 12.462301 -0.348999 -7.840611 -0.484740 -74.506525 -22.646433 45.212347 23.748146 -32.284145 -9.233752 0.668019 1.153431 -6.976348 14.618974 -28.319569 -6.920429 -7.125000 0.000000 0.000000 -9.884240 0.114648 10.014481 0.315368 7.114796 0.328177 77.482332 -15.937888 14.010056 -7.385819 13.803428 -2.149039 3.218350 1.210672 -1.088416 -27.566822 -18.793552 11.248771 7.125000 0.000000 0.000000 -2.562908 -52.358197 0.461907
